<?xml version="1.0" encoding="utf-8"?>
<!-- Generator: Adobe Illustrator 22.0.1, SVG Export Plug-In . SVG Version: 6.00 Build 0)  -->
<svg version="1.1" xmlns="http://www.w3.org/2000/svg" xmlns:xlink="http://www.w3.org/1999/xlink" x="0px" y="0px"
	 viewBox="0 0 110 131.1" style="enable-background:new 0 0 110 131.1;" xml:space="preserve">
<style type="text/css">
	.st0{display:none;}
	.st1{display:inline;fill:#2993C2;}
	.st2{font-family:'FugazOne-Regular';}
	.st3{font-size:30px;}
	.st4{fill:#162B49;}
	.st5{fill:#2993C2;}
	.st6{fill:url(#SVGID_1_);}
	.st7{fill:#FFFFFF;}
</style>
<g id="blue_water_music" class="st0">
	<text transform="matrix(1 0 0 1 107.1564 80.245)" class="st1 st2 st3">blue water music</text>
</g>
<g id="shape">
	<path class="st4" d="M35.3,75.6c-21.5-15.5-1.9-43.4,15.8-45.8c17-2.4,38.4,13.4,39.3,35.9c1.1,26.6-13.6,47.8-22,51.8
		C54.3,124.2,54,89,35.3,75.6z"/>
	<path class="st5" d="M82.3,66.1c19.9,20-6.3,45.2-25.7,44.4c-18.6-0.7-38.4-21.1-35-44.4c4-27.7,23.8-46.9,33.4-49.4
		C71.4,12.4,65,48.8,82.3,66.1z"/>
	<linearGradient id="SVGID_1_" gradientUnits="userSpaceOnUse" x1="29.2975" y1="73.9097" x2="72.3738" y2="73.9097">
		<stop  offset="0" style="stop-color:#386CB0"/>
		<stop  offset="1" style="stop-color:#3E1083"/>
	</linearGradient>
	<path class="st6" d="M67.9,75.6c12.6,12.6-4,28.6-16.2,28.1c-11.8-0.5-24.2-13.3-22.1-28.1C32,58.1,44.5,46,50.6,44.4
		C61,41.6,56.9,64.6,67.9,75.6z"/>
	<path class="st7" d="M73.9,82.6c12.6,12.6-4,28.6-16.2,28.1c-11.8-0.5-24.2-13.3-22.1-28.1C38,65.1,50.5,53,56.6,51.4
		C67,48.6,62.9,71.6,73.9,82.6z"/>
</g>
</svg>
